<svg xmlns="http://www.w3.org/2000/svg" width="38.5" height="33.969" viewBox="0 0 38.5 33.969">
  <defs>
    <style>
      .cls-1 {
        fill: #f1135c;
        fill-rule: evenodd;
      }
    </style>
  </defs>
  <path id="Фигура_3_копия" data-name="Фигура 3 копия" class="cls-1" d="M542.149,48.9l-7.957-.743,2.519-2.529-7.917-8a5.46,5.46,0,0,0-7.78,0,5.6,5.6,0,0,0,0,7.864l5.643,5.7-0.016.016,0.482,0.483a8.786,8.786,0,0,1,0,12.387,8.7,8.7,0,0,1-12.335,0l-7.932-7.965-2.446,2.457-0.741-8,7.964,0.744-2.581,2.592L516.8,61.7a5.508,5.508,0,0,0,7.815,0,5.567,5.567,0,0,0,0-7.848l-5.669-5.693,0.037-.036-0.465-.47a8.843,8.843,0,0,1,0-12.411,8.617,8.617,0,0,1,12.279,0l8.1,8.188,2.5-2.515Z" transform="translate(-503.656 -32.688)"/>
</svg>
