<svg xmlns="http://www.w3.org/2000/svg" width="25" height="18" viewBox="0 0 25 18">
  <defs>
    <style>
      .cls-1 {
        fill: #149df4;
        fill-rule: evenodd;
      }
    </style>
  </defs>
  <path class="cls-1" d="M1176.94,57h-18.88a2.981,2.981,0,0,1-3.06-2.892V41.892A2.981,2.981,0,0,1,1158.06,39h18.89a2.982,2.982,0,0,1,3.05,2.9V54.107A2.981,2.981,0,0,1,1176.94,57Zm1.66-2.892V41.9a1.616,1.616,0,0,0-1.66-1.571h-18.88a1.616,1.616,0,0,0-1.66,1.571V54.107a1.616,1.616,0,0,0,1.66,1.571h18.89a1.622,1.622,0,0,0,1.66-1.571h-0.01Zm-1.67.191a0.712,0.712,0,0,1-.5.206,0.731,0.731,0,0,1-.49-0.181l-6.21-5.589-1.75,1.478a0.712,0.712,0,0,1-.46.171,0.736,0.736,0,0,1-.47-0.166l-1.69-1.434-6.26,5.535a0.7,0.7,0,0,1-.47.176,0.747,0.747,0,0,1-.52-0.21,0.649,0.649,0,0,1,.03-0.935l6.17-5.457-6.19-5.232a0.635,0.635,0,0,1-.06-0.935,0.728,0.728,0,0,1,.99-0.054l6.69,5.667a0.789,0.789,0,0,1,.12.093,0.014,0.014,0,0,0,.01.015l1.64,1.39,8.43-7.16a0.733,0.733,0,0,1,.99.049,0.634,0.634,0,0,1-.05.935l-6.11,5.188,6.14,5.515A0.633,0.633,0,0,1,1176.93,54.3Z" transform="translate(-1155 -39)"/>
</svg>
