<svg xmlns="http://www.w3.org/2000/svg" width="20" height="16" viewBox="0 0 20 16">
  <defs>
    <style>
      .cls-1 {
        fill: #fff;
        fill-rule: evenodd;
      }
    </style>
  </defs>
  <path id="Фигура_15" data-name="Фигура 15" class="cls-1" d="M1409,41a11.921,11.921,0,0,1-.29,1.464L1405.95,54.9a2.162,2.162,0,0,1-.25.691,0.82,0.82,0,0,1-.95.388,1.907,1.907,0,0,1-.71-0.328c-1.39-.985-2.78-1.962-4.17-2.953a0.27,0.27,0,0,0-.42.029c-0.69.649-1.38,1.284-2.07,1.93a1.231,1.231,0,0,1-.93.381,0.473,0.473,0,0,1-.5-0.359c-0.43-1.278-.87-2.555-1.3-3.831-0.15-.433-0.3-0.864-0.44-1.3a0.4,0.4,0,0,0-.3-0.286c-1.36-.4-2.72-0.807-4.08-1.212a2.33,2.33,0,0,1-.51-0.2,0.464,0.464,0,0,1-.09-0.839,2.694,2.694,0,0,1,.8-0.427q2.775-1.025,5.56-2.047,5.985-2.209,11.99-4.416l0.09-.036A0.911,0.911,0,0,1,1409,41Zm-12.54,12.822a0.108,0.108,0,0,0,.07-0.117c0.09-.931.19-1.863,0.27-2.8a0.726,0.726,0,0,1,.28-0.566q3.9-3.353,7.8-6.719c0.17-.142.33-0.282,0.49-0.427,0.07-.06.16-0.129,0.1-0.229a0.233,0.233,0,0,0-.27-0.089,1.26,1.26,0,0,0-.53.216q-4.815,2.9-9.62,5.793a0.277,0.277,0,0,0-.15.4q0.6,1.7,1.17,3.408C1396.2,53.066,1396.33,53.441,1396.46,53.819Z" transform="translate(-1389 -40)"/>
</svg>
