<svg xmlns="http://www.w3.org/2000/svg" width="22" height="22" viewBox="0 0 22 22">
  <defs>
    <style>
      .cls-1 {
        fill: #149df4;
        fill-rule: evenodd;
      }
    </style>
  </defs>
  <path class="cls-1" d="M946.458,51.623a23.407,23.407,0,0,0,7.793,6.081,12.153,12.153,0,0,0,4.361,1.285c0.105,0,.206.01,0.311,0.01a3.619,3.619,0,0,0,2.8-1.2,0.138,0.138,0,0,0,.018-0.023,11.656,11.656,0,0,1,.883-0.912c0.215-.205.435-0.419,0.645-0.639a2.195,2.195,0,0,0-.009-3.277l-2.75-2.74a2.23,2.23,0,0,0-1.611-.738,2.307,2.307,0,0,0-1.629.734l-1.638,1.632c-0.151-.087-0.307-0.164-0.453-0.237a5.55,5.55,0,0,1-.5-0.274,17.308,17.308,0,0,1-4.142-3.756,9.968,9.968,0,0,1-1.4-2.224c0.43-.388.833-0.793,1.222-1.19,0.137-.141.279-0.282,0.421-0.424a2.152,2.152,0,0,0,0-3.282l-1.364-1.358c-0.16-.16-0.311-0.315-0.466-0.474-0.3-.31-0.618-0.629-0.929-0.916a2.286,2.286,0,0,0-1.611-.7,2.352,2.352,0,0,0-1.629.706l-1.712,1.705a3.5,3.5,0,0,0-1.047,2.243,8.4,8.4,0,0,0,.636,3.647A21.173,21.173,0,0,0,946.458,51.623Zm-3.322-9.874a2.4,2.4,0,0,1,.728-1.55l1.7-1.7a1.233,1.233,0,0,1,.842-0.388,1.173,1.173,0,0,1,.824.4c0.306,0.283.594,0.579,0.906,0.894,0.155,0.16.315,0.319,0.475,0.483l1.364,1.359a1.06,1.06,0,0,1,0,1.705c-0.142.141-.284,0.287-0.425,0.428-0.426.429-.824,0.834-1.263,1.222l-0.023.023a0.888,0.888,0,0,0-.229,1.012c0,0.014.009,0.023,0.014,0.036a10.719,10.719,0,0,0,1.606,2.6,18.281,18.281,0,0,0,4.411,4,6.476,6.476,0,0,0,.6.328c0.183,0.091.352,0.178,0.5,0.274,0.018,0.009.031,0.018,0.05,0.027a0.957,0.957,0,0,0,.444.114,0.974,0.974,0,0,0,.682-0.31l1.711-1.705A1.214,1.214,0,0,1,958.9,50.6a1.15,1.15,0,0,1,.81.406l2.76,2.745a1.1,1.1,0,0,1-.014,1.719c-0.192.205-.394,0.4-0.609,0.606a13.239,13.239,0,0,0-.956.989,2.516,2.516,0,0,1-1.963.829c-0.078,0-.16,0-0.238-0.009a11.056,11.056,0,0,1-3.945-1.176,22.251,22.251,0,0,1-7.417-5.789,20.277,20.277,0,0,1-3.615-6A7.321,7.321,0,0,1,943.136,41.749Z" transform="translate(-942.031 -37)"/>
</svg>
